<?xml version="1.0" encoding="utf-8"?>
<!-- Generator: Adobe Illustrator 26.0.3, SVG Export Plug-In . SVG Version: 6.00 Build 0)  -->
<svg version="1.1" id="Слой_1" xmlns="http://www.w3.org/2000/svg" xmlns:xlink="http://www.w3.org/1999/xlink" x="0px" y="0px"
	 viewBox="0 0 50 51" style="enable-background:new 0 0 50 51;" xml:space="preserve">
<style type="text/css">
	.st0{clip-path:url(#SVGID_00000048490258087112783560000003203472751421889195_);}
</style>
<path d="M25,50.8c-13.8,0-25-11.2-25-25s11.2-25,25-25s25,11.2,25,25S38.8,50.8,25,50.8z M25,2.8c-12.7,0-23,10.3-23,23
	c0,12.7,10.3,23,23,23c12.7,0,23-10.3,23-23C48,13.1,37.7,2.8,25,2.8z"/>
<g>
	<defs>
		<rect id="SVGID_1_" x="17" y="17.8" width="16" height="16"/>
	</defs>
	<clipPath id="SVGID_00000065071254012024938360000018094676002464261298_">
		<use xlink:href="#SVGID_1_"  style="overflow:visible;"/>
	</clipPath>
	<g style="clip-path:url(#SVGID_00000065071254012024938360000018094676002464261298_);">
		<path d="M33,24.8h-7v-7h-2v7h-7v2h7v7h2v-7h7V24.8z"/>
	</g>
</g>
</svg>
